<?xml version="1.0" encoding="UTF-8" standalone="no"?>
<!-- Created with Inkscape (http://www.inkscape.org/) -->

<svg
   xmlns:dc="http://purl.org/dc/elements/1.1/"
   xmlns:cc="http://creativecommons.org/ns#"
   xmlns:rdf="http://www.w3.org/1999/02/22-rdf-syntax-ns#"
   xmlns:svg="http://www.w3.org/2000/svg"
   xmlns="http://www.w3.org/2000/svg"
   xmlns:sodipodi="http://sodipodi.sourceforge.net/DTD/sodipodi-0.dtd"
   xmlns:inkscape="http://www.inkscape.org/namespaces/inkscape"
   width="17.997868mm"
   height="3.7496419mm"
   viewBox="0 0 63.771972 13.286133"
   id="svg2"
   version="1.1"
   inkscape:version="0.91 r13725"
   inkscape:export-filename="/Users/tannewt/polystack.png"
   inkscape:export-xdpi="599.89801"
   inkscape:export-ydpi="599.89801"
   sodipodi:docname="polystack.svg">
  <defs
     id="defs4" />
  <sodipodi:namedview
     id="base"
     pagecolor="#ffffff"
     bordercolor="#666666"
     borderopacity="1.0"
     inkscape:pageopacity="0.0"
     inkscape:pageshadow="2"
     inkscape:zoom="22.4"
     inkscape:cx="24.809081"
     inkscape:cy="15.87137"
     inkscape:document-units="mm"
     inkscape:current-layer="text4146"
     showgrid="true"
     fit-margin-top="0"
     fit-margin-left="0"
     fit-margin-right="0"
     fit-margin-bottom="0"
     inkscape:window-width="2560"
     inkscape:window-height="1315"
     inkscape:window-x="0"
     inkscape:window-y="1"
     inkscape:window-maximized="1">
    <inkscape:grid
       type="xygrid"
       id="grid4136"
       snapvisiblegridlinesonly="false"
       units="mm"
       spacingx="3.5433071"
       spacingy="3.543307"
       originx="-3.6054656"
       originy="-14.842915" />
  </sodipodi:namedview>
  <metadata
     id="metadata7">
    <rdf:RDF>
      <cc:Work
         rdf:about="">
        <dc:format>image/svg+xml</dc:format>
        <dc:type
           rdf:resource="http://purl.org/dc/dcmitype/StillImage" />
        <dc:title></dc:title>
      </cc:Work>
    </rdf:RDF>
  </metadata>
  <g
     inkscape:label="SilkS"
     inkscape:groupmode="layer"
     id="layer1"
     transform="translate(-3.6054657,-1024.2332)">
    <g
       style="font-style:normal;font-variant:normal;font-weight:bold;font-stretch:normal;font-size:15px;line-height:125%;font-family:'Maven Pro';-inkscape-font-specification:'Maven Pro Bold';letter-spacing:0px;word-spacing:0px;fill:#000000;fill-opacity:1;stroke:none;stroke-width:1px;stroke-linecap:butt;stroke-linejoin:miter;stroke-opacity:1"
       id="text4146">
      <path
         d="m 3.6054657,1037.3435 0,-7.8442 q 0,-1.0327 0.7690429,-1.7725 0.7763672,-0.7471 2.3803711,-0.7471 0.3735352,0 0.7397461,0.059 0.3735352,0.059 0.871582,0.3076 0.5053711,0.2491 0.8642579,0.6446 0.3588867,0.3955 0.6225585,1.1645 0.2636718,0.7617 0.2636718,1.7652 0,1.831 -0.9008788,2.8125 -0.9008789,0.9814 -2.578125,0.9814 -0.6298828,0 -1.2304687,-0.1318 l 0,2.7612 -1.8017578,0 z m 1.8017578,-4.1089 q 0.6225586,0.088 1.105957,0.088 0.871582,0 1.3256836,-0.5054 0.4614258,-0.5127 0.4614258,-1.8017 0,-1.3184 -0.3442383,-1.9043 -0.3442383,-0.586 -1.2011719,-0.586 -1.3476562,0 -1.3476562,0.8057 l 0,3.9038 z"
         style="font-style:normal;font-variant:normal;font-weight:bold;font-stretch:normal;font-family:'Maven Pro';-inkscape-font-specification:'Maven Pro Bold'"
         id="path4175" />
      <path
         d="m 12.548337,1033.6887 q -0.915528,-0.9961 -0.915528,-2.8564 0,-1.8604 0.915528,-2.8565 0.915527,-0.9961 2.62207,-0.9961 1.713867,0 2.629395,0.9961 0.915527,0.9961 0.915527,2.8565 0,1.8603 -0.915527,2.8564 -0.915528,0.9961 -2.629395,0.9961 -1.706543,0 -2.62207,-0.9961 z m 1.311035,-4.7387 q -0.424805,0.4907 -0.424805,1.8896 0,1.3916 0.424805,1.8823 0.432129,0.4834 1.318359,0.4834 0.886231,0 1.311035,-0.4834 0.424805,-0.4907 0.424805,-1.8823 0,-1.3989 -0.424805,-1.8896 -0.424804,-0.4908 -1.311035,-0.4908 -0.88623,0 -1.318359,0.4908 z"
         style="font-style:normal;font-variant:normal;font-weight:bold;font-stretch:normal;font-family:'Maven Pro';-inkscape-font-specification:'Maven Pro Bold'"
         id="path4177" />
      <path
         d="m 20.648923,1034.5676 0,-10.3344 1.801757,0 0,10.3344 -1.801757,0 z"
         style="font-style:normal;font-variant:normal;font-weight:bold;font-stretch:normal;font-family:'Maven Pro';-inkscape-font-specification:'Maven Pro Bold'"
         id="path4179" />
      <path
         d="m 24.076657,1027.0823 1.911621,0 1.677246,5.2221 1.647949,-5.2221 1.904297,0 -2.849121,7.6684 q -0.600586,1.6333 -1.303711,2.1973 -0.703125,0.5713 -1.457519,0.5713 -0.556641,0 -1.135254,-0.2051 l 0,-1.5015 q 0.432129,0.1831 0.849609,0.1831 0.776367,0 1.442871,-1.8164 l -2.687988,-7.0971 z"
         style="font-style:normal;font-variant:normal;font-weight:bold;font-stretch:normal;font-family:'Maven Pro';-inkscape-font-specification:'Maven Pro Bold'"
         id="path4181" />
      <path
         d="m 32.257809,1029.3015 q 0,-1.1279 0.791016,-1.7285 0.79834,-0.6079 1.984863,-0.6079 1.113282,0 2.043457,0.5347 l 0,1.3696 q -0.761718,-0.3589 -1.728515,-0.3589 -1.289063,0 -1.289063,0.6299 0,0.3149 0.366211,0.498 0.366211,0.1758 0.893555,0.315 0.527344,0.1318 1.047363,0.3662 0.527344,0.227 0.893555,0.7763 0.373535,0.5494 0.373535,1.399 0,0.9448 -0.769043,1.5674 -0.761719,0.6225 -2.021484,0.6225 -1.289063,0 -2.373047,-0.6152 l 0,-1.604 q 0.988769,0.6592 2.116699,0.6592 0.776367,0 1.010742,-0.1758 0.234375,-0.1831 0.234375,-0.542 0,-0.3296 -0.373535,-0.5274 -0.366211,-0.205 -0.893555,-0.3515 -0.520019,-0.1538 -1.047363,-0.3589 -0.52002,-0.2051 -0.893555,-0.6738 -0.366211,-0.4761 -0.366211,-1.1939 z"
         style="font-style:normal;font-variant:normal;font-weight:bold;font-stretch:normal;font-family:'Maven Pro';-inkscape-font-specification:'Maven Pro Bold'"
         id="path4183" />
      <path
         d="m 38.76904,1028.6277 0,-1.5454 1.259765,0 0,-2.2193 1.801758,0 0,2.2193 1.772461,0 0,1.5454 -1.772461,0 0,3.6914 q 0,0.4834 0.197754,0.6518 0.205078,0.1685 0.717774,0.1685 0.483398,0 0.856933,-0.1611 l 0,1.4868 q -0.527344,0.2197 -1.149902,0.2197 -0.02197,0 -0.03662,0 -1.113281,0 -1.750488,-0.6592 -0.637208,-0.6591 -0.637208,-1.8164 l 0,-3.5815 -1.259765,0 z"
         style="font-style:normal;font-variant:normal;font-weight:bold;font-stretch:normal;font-family:'Maven Pro';-inkscape-font-specification:'Maven Pro Bold'"
         id="path4185" />
      <path
         d="m 45.023923,1032.1213 q 0,-0.227 0.04394,-0.4614 0.04395,-0.2417 0.227051,-0.6006 0.190429,-0.3589 0.512695,-0.6299 0.322266,-0.271 0.952149,-0.4614 0.629882,-0.1977 1.486816,-0.1977 0.615234,0 1.318359,0.1025 0,-1.4136 -1.589355,-1.4136 -1.259766,0 -2.189942,0.3809 l 0,-1.4575 q 1.032715,-0.4175 2.292481,-0.4175 1.604004,0 2.453613,0.8203 0.84961,0.813 0.84961,2.3584 l 0,2.0215 q 0,1.0327 -0.776368,1.7798 -0.769043,0.7397 -2.373047,0.7397 -1.647949,0 -2.43164,-0.7471 -0.776367,-0.747 -0.776367,-1.8164 z m 1.779785,-0.227 q 0,1.2012 1.413574,1.2012 0.0073,0 0.01465,0 1.347657,0 1.347657,-1.1353 l 0,-0.9448 q -0.629883,-0.088 -1.07666,-0.095 -1.691895,0 -1.699219,0.9741 z"
         style="font-style:normal;font-variant:normal;font-weight:bold;font-stretch:normal;font-family:'Maven Pro';-inkscape-font-specification:'Maven Pro Bold'"
         id="path4187" />
      <path
         d="m 52.963376,1030.8323 q 0,-1.875 0.915527,-2.8711 0.915527,-0.9961 2.62207,-0.9961 1.098633,0 2.160645,0.4175 l 0,1.5014 q -0.88623,-0.3589 -1.860352,-0.3589 -1.032714,0 -1.538086,0.4761 -0.498046,0.4688 -0.498046,1.8311 0,1.3476 0.498046,1.831 0.505372,0.4761 1.538086,0.4761 0.930176,0 1.860352,-0.3735 l 0,1.5014 q -1.062012,0.4175 -2.160645,0.4175 -1.706543,0 -2.62207,-0.9961 -0.915527,-0.9961 -0.915527,-2.8564 z"
         style="font-style:normal;font-variant:normal;font-weight:bold;font-stretch:normal;font-family:'Maven Pro';-inkscape-font-specification:'Maven Pro Bold'"
         id="path4189" />
      <path
         d="m 60.324216,1034.5676 0,-10.2905 1.801757,0 0,5.5518 2.519532,-2.7466 2.387695,0 -3.259277,3.3325 3.603515,4.1528 -2.277832,0 -2.475586,-2.9516 -0.498047,0.5053 0,2.4463 -1.801757,0 z"
         style="font-style:normal;font-variant:normal;font-weight:bold;font-stretch:normal;font-family:'Maven Pro';-inkscape-font-specification:'Maven Pro Bold'"
         id="path4191" />
    </g>
  </g>
</svg>
