<?xml version="1.0" encoding="UTF-8" standalone="no"?>
<!-- Created with Inkscape (http://www.inkscape.org/) -->

<svg
   xmlns:dc="http://purl.org/dc/elements/1.1/"
   xmlns:cc="http://creativecommons.org/ns#"
   xmlns:rdf="http://www.w3.org/1999/02/22-rdf-syntax-ns#"
   xmlns:svg="http://www.w3.org/2000/svg"
   xmlns="http://www.w3.org/2000/svg"
   xmlns:sodipodi="http://sodipodi.sourceforge.net/DTD/sodipodi-0.dtd"
   xmlns:inkscape="http://www.inkscape.org/namespaces/inkscape"
   width="17.997868mm"
   height="3.7496419mm"
   viewBox="0 0 63.771972 13.286133"
   id="svg2"
   version="1.1"
   inkscape:version="0.91 r13725"
   inkscape:export-filename="/Users/tannewt/polystack.png"
   inkscape:export-xdpi="599.89801"
   inkscape:export-ydpi="599.89801"
   sodipodi:docname="polystack-medium.svg">
  <defs
     id="defs4" />
  <sodipodi:namedview
     id="base"
     pagecolor="#ffffff"
     bordercolor="#666666"
     borderopacity="1.0"
     inkscape:pageopacity="0.0"
     inkscape:pageshadow="2"
     inkscape:zoom="15.839192"
     inkscape:cx="57.076775"
     inkscape:cy="30.714285"
     inkscape:document-units="mm"
     inkscape:current-layer="layer1"
     showgrid="true"
     fit-margin-top="0"
     fit-margin-left="0"
     fit-margin-right="0"
     fit-margin-bottom="0"
     inkscape:window-width="2560"
     inkscape:window-height="1315"
     inkscape:window-x="0"
     inkscape:window-y="1"
     inkscape:window-maximized="1">
    <inkscape:grid
       type="xygrid"
       id="grid4136"
       snapvisiblegridlinesonly="false"
       units="mm"
       spacingx="3.5433071"
       spacingy="3.543307"
       originx="-3.6054656"
       originy="-14.842915" />
  </sodipodi:namedview>
  <metadata
     id="metadata7">
    <rdf:RDF>
      <cc:Work
         rdf:about="">
        <dc:format>image/svg+xml</dc:format>
        <dc:type
           rdf:resource="http://purl.org/dc/dcmitype/StillImage" />
        <dc:title></dc:title>
      </cc:Work>
    </rdf:RDF>
  </metadata>
  <g
     inkscape:label="SilkS"
     inkscape:groupmode="layer"
     id="layer1"
     transform="translate(-3.6054657,-1024.2332)">
    <g
       style="font-style:normal;font-variant:normal;font-weight:500;font-stretch:normal;font-size:15px;line-height:125%;font-family:'Maven Pro';-inkscape-font-specification:'Maven Pro Medium';letter-spacing:0px;word-spacing:0px;fill:#000000;fill-opacity:1;stroke:none;stroke-width:1px;stroke-linecap:butt;stroke-linejoin:miter;stroke-opacity:1"
       id="text4307">
      <path
         d="m 4.4027417,1037.4318 0,-8.042 q 0,-0.2417 0.043945,-0.4761 0.043945,-0.2417 0.2197265,-0.6079 0.1831055,-0.3662 0.4907227,-0.6445 0.3076172,-0.2784 0.9228516,-0.4761 0.6152343,-0.2051 1.4282226,-0.2051 0.4174805,0 0.8129883,0.073 0.402832,0.073 0.871582,0.3296 0.4760743,0.2564 0.8203123,0.6665 0.344239,0.4102 0.571289,1.1573 0.234375,0.7397 0.234375,1.7138 0,1.1133 -0.307617,1.9043 -0.300293,0.7837 -0.8349608,1.1646 -0.534668,0.3808 -1.0913086,0.5493 -0.5493164,0.1611 -1.2158203,0.1611 -0.8276368,0 -1.5893555,-0.2197 l 0,2.9517 -1.3769531,0 z m 1.3769531,-4.2627 q 0.7763672,0.3003 1.5893555,0.3003 0.4614257,0 0.7836914,-0.088 0.3295898,-0.088 0.6445312,-0.3369 0.3149414,-0.2491 0.4760742,-0.7764 0.1684571,-0.5347 0.1684571,-1.3477 0,-0.8715 -0.1684571,-1.4428 -0.1611328,-0.5787 -0.46875,-0.8423 -0.3076171,-0.2637 -0.6079101,-0.3589 -0.300293,-0.095 -0.6884766,-0.095 -1.7285156,0 -1.7285156,1.1206 l 0,3.8672 z"
         style=""
         id="path4312" />
      <path
         d="m 12.686433,1032.7882 q -0.314941,-0.7983 -0.314941,-1.9409 0,-1.1426 0.314941,-1.9336 0.314941,-0.7983 0.856934,-1.1939 0.541992,-0.3955 1.105957,-0.5566 0.571289,-0.1684 1.245117,-0.1684 0.681152,0 1.245117,0.1684 0.571289,0.1611 1.113281,0.5566 0.541993,0.3956 0.856934,1.1939 0.314941,0.791 0.314941,1.9336 0,1.1426 -0.314941,1.9409 -0.314941,0.791 -0.856934,1.1865 -0.541992,0.3955 -1.113281,0.564 -0.563965,0.1611 -1.245117,0.1611 -0.673828,0 -1.245117,-0.1611 -0.563965,-0.1685 -1.105957,-0.564 -0.541993,-0.3955 -0.856934,-1.1865 z m 1.230469,-3.3252 q -0.161133,0.542 -0.161133,1.3843 0,0.8423 0.161133,1.3916 0.168457,0.542 0.498047,0.8057 0.32959,0.2636 0.666504,0.3515 0.336914,0.088 0.812988,0.088 0.483398,0 0.820312,-0.088 0.336914,-0.088 0.666504,-0.3515 0.32959,-0.2637 0.490723,-0.8057 0.168457,-0.5493 0.168457,-1.3916 0,-0.8423 -0.168457,-1.3843 -0.161133,-0.5493 -0.490723,-0.813 -0.32959,-0.2636 -0.666504,-0.3515 -0.336914,-0.088 -0.820312,-0.088 -0.476074,0 -0.812988,0.088 -0.336914,0.088 -0.666504,0.3515 -0.32959,0.2637 -0.498047,0.813 z"
         style=""
         id="path4314" />
      <path
         d="m 21.416902,1034.5826 0,-10.3344 1.376953,0 0,10.3344 -1.376953,0 z"
         style=""
         id="path4316" />
      <path
         d="m 24.43448,1027.0973 1.472168,0 2.01416,5.6103 1.977539,-5.6103 1.472168,0 -3.076172,8.2837 q -0.79834,2.1533 -2.321777,2.1533 0,0 -0.0073,0 -0.498047,0 -1.047364,-0.1172 l 0,-1.2305 q 0.446778,0.1172 0.842286,0.1246 0.930175,0 1.501464,-1.7286 l -2.827148,-7.4853 z"
         style=""
         id="path4318" />
      <path
         d="m 32.366609,1029.214 q 0,-0.9302 0.65918,-1.582 0.666503,-0.6519 2.028808,-0.6519 1.018067,0 2.006836,0.4907 l 0,1.1865 q -0.974121,-0.4467 -1.838379,-0.4467 -1.486816,0 -1.486816,0.9594 0,0.315 0.395508,0.5274 0.395507,0.2051 0.952148,0.3662 0.556641,0.1538 1.113281,0.3809 0.563965,0.2197 0.959473,0.747 0.402832,0.5274 0.402832,1.3037 0,0.9009 -0.681152,1.5528 -0.681153,0.6518 -2.109375,0.6518 -1.201172,0 -2.160645,-0.52 l 0,-1.2451 q 0.974121,0.5493 2.072754,0.5493 0.01465,0 0.0293,0 0.717773,0 1.091308,-0.2563 0.38086,-0.2637 0.38086,-0.6665 0,-0.4615 -0.395508,-0.7398 -0.388184,-0.2856 -0.952148,-0.4394 -0.563965,-0.1612 -1.12793,-0.3516 -0.556641,-0.1978 -0.952149,-0.6445 -0.388183,-0.4541 -0.388183,-1.1719 z"
         style=""
         id="path4320" />
      <path
         d="m 38.628816,1028.2545 0,-1.1572 1.303711,0 0,-2.2339 1.369629,0 0,2.2339 1.992187,0 0,1.1572 -1.992187,0 0,4.3506 q 0,0.8789 1.105957,0.8789 0.0073,0 0.01465,0 0.512696,0 0.871582,-0.2197 l 0,1.2305 q -0.512695,0.205 -1.02539,0.205 -0.01465,0 -0.03662,0 -0.270997,0 -0.578614,-0.066 -0.307617,-0.066 -0.739746,-0.2563 -0.424805,-0.1978 -0.703125,-0.6739 -0.27832,-0.4834 -0.27832,-1.1938 l 0,-4.2554 -1.303711,0 z"
         style=""
         id="path4322" />
      <path
         d="m 44.678621,1032.2242 q 0,-1.1132 0.9375,-1.7358 0.9375,-0.6299 2.585449,-0.6299 0.703125,0 1.362304,0.088 -0.04395,-0.9448 -0.520019,-1.355 -0.46875,-0.4101 -1.54541,-0.4101 -0.974121,0 -2.072754,0.3735 l 0,-1.1719 q 1.062012,-0.4028 2.263183,-0.4028 1.560059,0 2.409668,0.813 0.84961,0.8057 0.84961,2.3218 l 0,2.1606 q 0,0.2417 -0.05127,0.4834 -0.04395,0.2344 -0.22705,0.6079 -0.175782,0.3736 -0.483399,0.6519 -0.307617,0.2783 -0.922851,0.4834 -0.615235,0.1977 -1.420899,0.1977 -0.827637,0 -1.450195,-0.205 -0.622559,-0.2125 -0.9375,-0.4908 -0.314942,-0.2783 -0.505371,-0.6592 -0.183106,-0.3808 -0.227051,-0.6298 -0.04395,-0.2491 -0.04395,-0.4908 z m 1.362304,-0.015 q 0,1.2744 1.801758,1.2744 0.0073,0 0.02197,0 1.699218,0 1.699218,-1.2231 l 0,-1.2159 q -0.541992,-0.088 -1.30371,-0.095 -0.300293,0 -0.629883,0.059 -0.32959,0.051 -0.710449,0.1685 -0.38086,0.1172 -0.629883,0.3882 -0.249024,0.271 -0.249024,0.6445 z"
         style=""
         id="path4324" />
      <path
         d="m 53.409089,1033.7037 q -0.908203,-0.9961 -0.908203,-2.8711 0,-1.875 0.908203,-2.8637 0.908203,-0.9888 2.614746,-0.9888 1.142579,0 2.20459,0.4175 l 0,1.3037 q -1.018066,-0.4907 -2.058105,-0.4907 -0.01465,0 -0.0293,0 -1.032715,0 -1.618652,0.5346 -0.585938,0.5274 -0.585938,2.0874 0,0.8277 0.168457,1.377 0.175781,0.542 0.512695,0.8057 0.344239,0.2636 0.688477,0.3515 0.351562,0.088 0.834961,0.088 1.07666,0 2.087402,-0.4761 l 0,1.3037 q -1.062011,0.4175 -2.20459,0.4175 -1.706543,0 -2.614746,-0.9961 z"
         style=""
         id="path4326" />
      <path
         d="m 59.861726,1034.5826 0,-10.3344 1.369629,0 0,5.9839 3.237305,-3.1348 1.860351,0 -3.251953,3.1201 3.684082,4.3652 -1.82373,0 -2.775879,-3.479 -0.930176,0.9009 0,2.5781 -1.369629,0 z"
         style=""
         id="path4328" />
    </g>
  </g>
</svg>
