<?xml version="1.0" encoding="UTF-8" standalone="no"?>
<!-- Created with Inkscape (http://www.inkscape.org/) -->

<svg
   xmlns:dc="http://purl.org/dc/elements/1.1/"
   xmlns:cc="http://creativecommons.org/ns#"
   xmlns:rdf="http://www.w3.org/1999/02/22-rdf-syntax-ns#"
   xmlns:svg="http://www.w3.org/2000/svg"
   xmlns="http://www.w3.org/2000/svg"
   xmlns:sodipodi="http://sodipodi.sourceforge.net/DTD/sodipodi-0.dtd"
   xmlns:inkscape="http://www.inkscape.org/namespaces/inkscape"
   width="17.05529mm"
   height="3.7330945mm"
   viewBox="0 0 60.432131 13.2275"
   id="svg2"
   version="1.1"
   inkscape:version="0.91 r13725"
   inkscape:export-filename="/Users/tannewt/polystack.png"
   inkscape:export-xdpi="599.89801"
   inkscape:export-ydpi="599.89801"
   sodipodi:docname="polystack-normal.svg">
  <defs
     id="defs4" />
  <sodipodi:namedview
     id="base"
     pagecolor="#ffffff"
     bordercolor="#666666"
     borderopacity="1.0"
     inkscape:pageopacity="0.0"
     inkscape:pageshadow="2"
     inkscape:zoom="22.4"
     inkscape:cx="17.710867"
     inkscape:cy="21.655687"
     inkscape:document-units="mm"
     inkscape:current-layer="layer1"
     showgrid="true"
     fit-margin-top="0"
     fit-margin-left="0"
     fit-margin-right="0"
     fit-margin-bottom="0"
     inkscape:window-width="2560"
     inkscape:window-height="1315"
     inkscape:window-x="0"
     inkscape:window-y="1"
     inkscape:window-maximized="1">
    <inkscape:grid
       type="xygrid"
       id="grid4136"
       snapvisiblegridlinesonly="false"
       units="mm"
       spacingx="3.5433071"
       spacingy="3.543307"
       originx="-3.6054658"
       originy="-14.901548" />
  </sodipodi:namedview>
  <metadata
     id="metadata7">
    <rdf:RDF>
      <cc:Work
         rdf:about="">
        <dc:format>image/svg+xml</dc:format>
        <dc:type
           rdf:resource="http://purl.org/dc/dcmitype/StillImage" />
        <dc:title></dc:title>
      </cc:Work>
    </rdf:RDF>
  </metadata>
  <g
     inkscape:label="SilkS"
     inkscape:groupmode="layer"
     id="layer1"
     transform="translate(-3.6054657,-1024.2332)">
    <g
       style="font-style:normal;font-variant:normal;font-weight:bold;font-stretch:normal;font-size:15px;line-height:125%;font-family:'Maven Pro';-inkscape-font-specification:'Maven Pro Bold';letter-spacing:0px;word-spacing:0px;fill:#000000;fill-opacity:1;stroke:none;stroke-width:1px;stroke-linecap:butt;stroke-linejoin:miter;stroke-opacity:1"
       id="text4146">
      <path
         d="m 3.6054657,1037.3435 0,-8.0273 q 0,-0.3003 0.087891,-0.6153 0.095215,-0.3149 0.3662109,-0.7544 0.2783203,-0.4467 0.9521485,-0.7177 0.6811523,-0.2784 1.6699218,-0.2784 0.4174805,0 0.8129883,0.073 0.402832,0.073 0.8642578,0.3296 0.46875,0.2563 0.8056641,0.6738 0.336914,0.4175 0.5639648,1.1646 0.234375,0.7397 0.234375,1.7285 0,1.1132 -0.3002929,1.8969 -0.300293,0.7764 -0.834961,1.1646 -0.5273437,0.3882 -1.0766601,0.5493 -0.5493164,0.1538 -1.2084961,0.1538 -0.9155274,0 -1.8603516,-0.2856 l 0,2.9443 -1.0766601,0 z m 1.0766601,-4.0356 q 0.8569336,0.3735 1.8603516,0.3735 1.2304687,0 1.7871093,-0.6519 0.5566407,-0.6518 0.5566407,-2.124 0,-0.9448 -0.2050782,-1.5747 -0.1977539,-0.6299 -0.5639648,-0.9155 -0.3588867,-0.2857 -0.6884766,-0.3809 -0.3295898,-0.095 -0.7470703,-0.095 -1.9921875,0 -1.9995117,1.333 l 0,4.0357 z"
         style="font-style:normal;font-variant:normal;font-weight:normal;font-stretch:normal;font-family:'Maven Pro';-inkscape-font-specification:'Maven Pro'"
         id="path4213"
         inkscape:connector-curvature="0" />
      <path
         d="m 11.830563,1032.7659 q -0.314941,-0.8057 -0.314941,-1.9483 0,-1.1426 0.314941,-1.9409 0.314942,-0.8057 0.856934,-1.2012 0.541992,-0.3955 1.098633,-0.5566 0.563965,-0.1685 1.237793,-0.1685 0.681152,0 1.245117,0.1685 0.571289,0.1611 1.113281,0.5566 0.541992,0.3955 0.856934,1.2012 0.314941,0.7983 0.314941,1.9409 0,1.1426 -0.314941,1.9483 -0.314942,0.7983 -0.856934,1.1938 -0.541992,0.3955 -1.113281,0.564 -0.563965,0.1611 -1.245117,0.1611 -0.673828,0 -1.237793,-0.1611 -0.556641,-0.1685 -1.098633,-0.564 -0.541992,-0.3955 -0.856934,-1.1938 z m 1.347657,-4.1382 q -0.578614,0.6885 -0.578614,2.1899 0,1.5015 0.578614,2.19 0.578613,0.6884 1.853027,0.6884 1.274414,0 1.853027,-0.6811 0.585938,-0.6812 0.585938,-2.1973 0,-1.5161 -0.585938,-2.1972 -0.578613,-0.6812 -1.853027,-0.6812 -1.274414,0 -1.853027,0.6885 z"
         style="font-style:normal;font-variant:normal;font-weight:normal;font-stretch:normal;font-family:'Maven Pro';-inkscape-font-specification:'Maven Pro'"
         id="path4215"
         inkscape:connector-curvature="0" />
      <path
         d="m 20.502438,1034.5676 0,-10.3344 1.07666,0 0,10.3344 -1.07666,0 z"
         style="font-style:normal;font-variant:normal;font-weight:normal;font-stretch:normal;font-family:'Maven Pro';-inkscape-font-specification:'Maven Pro'"
         id="path4217"
         inkscape:connector-curvature="0" />
      <path
         d="m 23.168454,1027.0823 1.157226,0 2.131348,5.9253 2.160645,-5.9253 1.157226,0 -3.061523,8.2177 q -0.79834,2.1607 -2.358399,2.1607 -0.358886,0 -0.703125,-0.1318 l 0,-0.9888 q 0.300293,0.1318 0.644532,0.1318 0.285644,0 0.563964,-0.2124 0.278321,-0.2051 0.454102,-0.498 0.183105,-0.293 0.32959,-0.5933 0.153808,-0.3003 0.212402,-0.5127 l 0.07324,-0.2051 -2.76123,-7.3681 z"
         style="font-style:normal;font-variant:normal;font-weight:normal;font-stretch:normal;font-family:'Maven Pro';-inkscape-font-specification:'Maven Pro'"
         id="path4219"
         inkscape:connector-curvature="0" />
      <path
         d="m 30.763669,1029.1257 q 0,-0.9008 0.651855,-1.5381 0.65918,-0.6372 2.006836,-0.6372 0.959473,0 1.918945,0.4615 l 0,1.0839 q -0.856933,-0.5126 -1.801757,-0.5126 -1.691895,0 -1.691895,1.1425 0,0.3882 0.410156,0.6299 0.410157,0.2344 1.003418,0.3955 0.593262,0.1538 1.186524,0.3736 0.593262,0.2197 1.003418,0.747 0.41748,0.52 0.41748,1.333 0,0.9742 -0.732422,1.5308 -0.725097,0.5493 -2.01416,0.5493 -1.245117,0 -2.263183,-0.564 l 0,-1.1425 q 1.07666,0.6592 2.219238,0.6592 1.706543,0 1.706543,-1.0328 0,-0.5566 -0.410156,-0.8715 -0.410157,-0.315 -1.003418,-0.4688 -0.593262,-0.1611 -1.186524,-0.3442 -0.593262,-0.1905 -1.010742,-0.6299 -0.410156,-0.4468 -0.410156,-1.1646 z"
         style="font-style:normal;font-variant:normal;font-weight:normal;font-stretch:normal;font-family:'Maven Pro';-inkscape-font-specification:'Maven Pro'"
         id="path4221"
         inkscape:connector-curvature="0" />
      <path
         d="m 36.89404,1028.071 0,-0.9887 1.303711,0 0,-2.1167 1.083984,0 0,2.1167 1.933594,0 0,0.9887 -1.933594,0 0,4.563 q 0,0.5713 0.234375,0.8057 0.241699,0.227 0.842285,0.227 0.461426,0 0.856934,-0.1757 l 0,1.018 q -0.476074,0.1758 -0.952149,0.1758 -0.02197,0 -0.03662,0 -0.300293,0 -0.585937,-0.066 -0.285645,-0.066 -0.644531,-0.2564 -0.358887,-0.1977 -0.578614,-0.6518 -0.219726,-0.4614 -0.219726,-1.1353 l 0,-4.5044 -1.303711,0 z"
         style="font-style:normal;font-variant:normal;font-weight:normal;font-stretch:normal;font-family:'Maven Pro';-inkscape-font-specification:'Maven Pro'"
         id="path4223"
         inkscape:connector-curvature="0" />
      <path
         d="m 42.533688,1032.2751 q 0,-0.5126 0.183106,-0.9155 0.190429,-0.4101 0.461426,-0.6592 0.270996,-0.2563 0.688476,-0.4321 0.417481,-0.1831 0.739746,-0.2637 0.322266,-0.088 0.761719,-0.1318 0.446777,-0.044 0.629883,-0.051 0.190429,-0.01 0.446777,-0.01 l 1.201172,0.073 q 0,-1.0035 -0.556641,-1.4283 -0.549316,-0.4321 -1.6333,-0.4321 -1.215821,0 -2.189942,0.3589 l 0,-1.0474 q 1.105957,-0.3882 2.248535,-0.3882 1.574707,0 2.402344,0.7984 0.827637,0.791 0.827637,2.3218 l 0,2.2485 q 0,0.7178 -0.336914,1.2305 -0.32959,0.5053 -0.856934,0.7324 -0.520019,0.227 -0.981445,0.3149 -0.454102,0.088 -0.900879,0.088 -0.344238,0 -0.710449,-0.044 -0.358887,-0.044 -0.820313,-0.1978 -0.454101,-0.1611 -0.791015,-0.4028 -0.336914,-0.249 -0.578614,-0.7031 -0.234375,-0.4615 -0.234375,-1.0621 z m 1.07666,0 q 0,1.4063 2.036133,1.4063 0.0073,0 0.02197,0 1.992187,0 1.992187,-1.3623 l 0,-1.4429 q -0.498046,-0.088 -1.333007,-0.088 -2.717286,0 -2.717286,1.4868 z"
         style="font-style:normal;font-variant:normal;font-weight:normal;font-stretch:normal;font-family:'Maven Pro';-inkscape-font-specification:'Maven Pro'"
         id="path4225"
         inkscape:connector-curvature="0" />
      <path
         d="m 50.355954,1030.8176 q 0,-1.1426 0.314941,-1.9409 0.314942,-0.8057 0.84961,-1.2012 0.541992,-0.3955 1.105957,-0.5566 0.563965,-0.1685 1.237793,-0.1685 1.127929,0 2.219238,0.4175 l 0,1.0327 q -1.018066,-0.4174 -2.102051,-0.4174 -1.333008,0 -1.940918,0.6738 -0.60791,0.6738 -0.60791,2.1606 0,1.5015 0.60791,2.168 0.60791,0.6665 1.940918,0.6665 1.12793,0 2.102051,-0.4175 l 0,1.0474 q -1.047363,0.4028 -2.219238,0.4028 -0.527344,0 -0.98877,-0.088 -0.454101,-0.088 -0.9375,-0.3515 -0.476074,-0.2637 -0.812988,-0.6739 -0.336914,-0.4174 -0.556641,-1.1206 -0.212402,-0.7031 -0.212402,-1.6333 z"
         style="font-style:normal;font-variant:normal;font-weight:normal;font-stretch:normal;font-family:'Maven Pro';-inkscape-font-specification:'Maven Pro'"
         id="path4227"
         inkscape:connector-curvature="0" />
      <path
         d="m 57.716794,1034.5676 0,-10.3344 1.083984,0 0,6.5258 3.361817,-3.6767 1.464843,0 -3.193359,3.435 3.603516,4.0503 -1.442872,0 -2.863769,-3.2885 -0.930176,1.0107 0,2.2778 -1.083984,0 z"
         style="font-style:normal;font-variant:normal;font-weight:normal;font-stretch:normal;font-family:'Maven Pro';-inkscape-font-specification:'Maven Pro'"
         id="path4229"
         inkscape:connector-curvature="0" />
    </g>
  </g>
</svg>
