<?xml version="1.0" encoding="UTF-8" standalone="no"?>
<!-- Created with Inkscape (http://www.inkscape.org/) -->

<svg
   xmlns:dc="http://purl.org/dc/elements/1.1/"
   xmlns:cc="http://creativecommons.org/ns#"
   xmlns:rdf="http://www.w3.org/1999/02/22-rdf-syntax-ns#"
   xmlns:svg="http://www.w3.org/2000/svg"
   xmlns="http://www.w3.org/2000/svg"
   xmlns:sodipodi="http://sodipodi.sourceforge.net/DTD/sodipodi-0.dtd"
   xmlns:inkscape="http://www.inkscape.org/namespaces/inkscape"
   width="95.117493mm"
   height="35.474819mm"
   viewBox="0 0 337.03049 125.69818"
   id="svg2"
   version="1.1"
   inkscape:version="0.91 r13725"
   sodipodi:docname="chickadee_colored.svg"
   inkscape:export-filename="/Users/tannewt/chickadee.png"
   inkscape:export-xdpi="599.8985"
   inkscape:export-ydpi="599.8985">
  <defs
     id="defs4" />
  <sodipodi:namedview
     id="base"
     pagecolor="#eeeeee"
     bordercolor="#666666"
     borderopacity="1.0"
     inkscape:pageopacity="0"
     inkscape:pageshadow="2"
     inkscape:zoom="0.35"
     inkscape:cx="163.66918"
     inkscape:cy="-459.48978"
     inkscape:document-units="px"
     inkscape:current-layer="g4932"
     showgrid="false"
     inkscape:window-width="1440"
     inkscape:window-height="782"
     inkscape:window-x="0"
     inkscape:window-y="1"
     inkscape:window-maximized="1"
     fit-margin-top="0"
     fit-margin-left="0"
     fit-margin-right="0"
     fit-margin-bottom="0" />
  <metadata
     id="metadata7">
    <rdf:RDF>
      <cc:Work
         rdf:about="">
        <dc:format>image/svg+xml</dc:format>
        <dc:type
           rdf:resource="http://purl.org/dc/dcmitype/StillImage" />
        <dc:title />
      </cc:Work>
    </rdf:RDF>
  </metadata>
  <g
     inkscape:groupmode="layer"
     id="layer4"
     inkscape:label="outline"
     transform="translate(6.5344072,3.4941106)"
     style="display:none">
    <g
       transform="translate(-222.10473,-119.96872)"
       style="display:inline;stroke:#ffffff;stroke-opacity:1"
       id="g4921">
      <path
         id="path4235"
         style="fill:#ffffff;fill-opacity:1;fill-rule:evenodd;stroke:#ffffff;stroke-width:15;stroke-linecap:butt;stroke-linejoin:round;stroke-miterlimit:4;stroke-dasharray:none;stroke-dashoffset:0;stroke-opacity:1"
         d="m 282.76714,229.19624 c 13.09923,6.25238 28.59023,6.74146 43.63306,3.48421 18.01153,-4.12781 39.86562,-22.35056 61.43239,-29.96514 21.56677,-7.61457 41.3852,-13.33278 64.02602,-16.60076 46.11961,-6.6569 91.09992,-3.54561 92.62188,-6.85453 3.04392,-6.61784 -9.98611,-27.56758 -9.98611,-27.56758 0,0 -79.45029,18.19392 -116.00046,19.8853 -4.56876,0.21142 -12.51517,-0.71888 -17.98818,-1.98769 0,0 -12.4937,12.94619 -57.73322,21.12579 -45.23954,8.17959 -39.24554,-22.61915 -39.24554,-22.61915 0,0 -8.62375,17.40811 -25.58539,20.09144 -25.46204,4.02808 -29.50766,1.03503 -29.50766,1.03503 6.54792,14.64717 17.80217,31.79702 34.33321,39.97308 z"
         inkscape:connector-curvature="0"
         sodipodi:nodetypes="ccssscscscscc" />
      <path
         sodipodi:nodetypes="cc"
         inkscape:connector-curvature="0"
         d="m 248.43393,189.22316 c -2.72816,-6.98951 -4.49811,-12.64818 -6.07524,-19.87109"
         style="fill:none;fill-opacity:1;fill-rule:evenodd;stroke:#ffffff;stroke-width:15;stroke-linecap:round;stroke-linejoin:round;stroke-miterlimit:4;stroke-dasharray:none;stroke-opacity:1"
         id="path4251" />
      <path
         id="path4231"
         style="fill:#ffffff;fill-opacity:1;fill-rule:evenodd;stroke:#ffffff;stroke-width:8;stroke-linecap:butt;stroke-linejoin:miter;stroke-miterlimit:4;stroke-dasharray:none;stroke-opacity:1"
         d="m 270.717,172.62178 c -13.78201,-0.32807 -29.10149,-6.7054 -29.10149,-6.7054 l -0.14861,-4.16443 c 0,0 26.5139,-4.2036 43.60518,-12.53232 17.09125,-8.32876 25.61224,-20.3898 25.61224,-20.3898 10.17488,3.97494 26.4903,11.95544 38.98754,18.22402 12.49722,6.26858 25.13398,12.61099 36.9308,17.28052 5.89841,2.33476 8.7297,3.44774 13.90308,5.25569 0,0 -12.4937,12.94618 -57.73322,21.12578 -45.23954,8.17959 -39.28816,-22.48457 -39.28816,-22.48457 0,0 -19.42181,4.7082 -32.76736,4.39051 z"
         inkscape:connector-curvature="0"
         sodipodi:nodetypes="sccscsscscs" />
      <path
         style="fill:none;fill-rule:evenodd;stroke:#ffffff;stroke-width:15;stroke-linecap:butt;stroke-linejoin:miter;stroke-miterlimit:4;stroke-dasharray:none;stroke-opacity:1"
         d="m 242.12047,155.40394 -12.54784,11.18951 13.65563,5.51004 z"
         id="path4237"
         inkscape:connector-curvature="0" />
      <path
         id="path4239"
         style="fill:none;fill-opacity:1;fill-rule:evenodd;stroke:#ffffff;stroke-width:15;stroke-linecap:butt;stroke-linejoin:miter;stroke-miterlimit:4;stroke-dasharray:none;stroke-opacity:1"
         d="m 285.07208,149.21963 c 17.09125,-8.32876 25.61224,-20.3898 25.61224,-20.3898 -10.06933,-4.35895 -18.46474,-5.54177 -26.48616,-4.52846 -32.08567,4.05322 -44.51388,26.48396 -42.75443,37.45486 0,0 26.53707,-4.20788 43.62835,-12.5366 z"
         inkscape:connector-curvature="0"
         sodipodi:nodetypes="scscs" />
      <path
         id="path4233"
         style="fill:none;fill-opacity:1;fill-rule:evenodd;stroke:#ffffff;stroke-width:8;stroke-linecap:butt;stroke-linejoin:round;stroke-miterlimit:4;stroke-dasharray:none;stroke-opacity:1"
         d="m 277.94159,188.18813 c -25.46204,4.02808 -29.50766,1.03503 -29.50766,1.03503 -2.72816,-6.98951 -4.49811,-12.64818 -6.07524,-19.87109 -0.48746,-2.24797 -0.71439,-3.49332 -0.71439,-3.49332 0,0 15.29069,9.46542 29.0727,9.79349 13.34555,0.31769 31.86473,-7.46994 31.86473,-7.46994 0,0 -7.6785,17.3225 -24.64014,20.00583 z"
         inkscape:connector-curvature="0"
         sodipodi:nodetypes="scccscs" />
      <path
         sodipodi:nodetypes="cssc"
         inkscape:connector-curvature="0"
         d="m 310.68432,128.82983 c 10.17488,3.97494 26.4903,11.95544 38.98754,18.22402 12.49722,6.26858 25.13398,12.61099 36.9308,17.28052 5.89841,2.33476 8.7297,3.44774 13.90308,5.25569"
         style="fill:#ffffff;fill-opacity:1;fill-rule:evenodd;stroke:#ffffff;stroke-width:15;stroke-linecap:butt;stroke-linejoin:miter;stroke-miterlimit:4;stroke-dasharray:none;stroke-opacity:1"
         id="path4253" />
      <path
         sodipodi:nodetypes="csc"
         inkscape:connector-curvature="0"
         d="m 401.09748,160.46278 c 0,0 -13.08544,22.07346 -58.32496,30.25306 -45.23954,8.17959 -42.78108,-20.59885 -42.78108,-20.59885"
         style="fill:none;fill-opacity:1;fill-rule:evenodd;stroke:#000000;stroke-width:4;stroke-linecap:square;stroke-linejoin:miter;stroke-miterlimit:4;stroke-dasharray:none;stroke-dashoffset:0;stroke-opacity:1"
         id="path4241" />
      <path
         sodipodi:nodetypes="cccc"
         inkscape:connector-curvature="0"
         id="path4243"
         d="m 246.29904,154.51108 -12.72641,12.08237 14.72706,6.58147 z"
         style="fill:#000000;fill-opacity:1;fill-rule:evenodd;stroke:#ffffff;stroke-width:5;stroke-linecap:butt;stroke-linejoin:miter;stroke-miterlimit:4;stroke-dasharray:none;stroke-opacity:1" />
    </g>
    <path
       style="fill:#ffffff;fill-rule:evenodd;stroke:none;stroke-width:1px;stroke-linecap:butt;stroke-linejoin:miter;stroke-opacity:1"
       d="M 5.555839,46.978429 25.75889,60.615489 44.951788,70.211938 82.832509,44.958124 78.791898,3.0367936 27.779195,17.178929 Z"
       id="path4963"
       inkscape:connector-curvature="0"
       sodipodi:nodetypes="ccccccc" />
  </g>
  <g
     inkscape:label="Layer 1"
     inkscape:groupmode="layer"
     id="layer1"
     transform="translate(-215.57032,-116.47461)"
     style="display:inline">
    <path
       style="fill:#330080;fill-rule:evenodd;stroke:none;stroke-width:1px;stroke-linecap:butt;stroke-linejoin:miter;stroke-opacity:1"
       d="m 250.57032,163.60136 -8.57143,6.42857 9.64286,20 41.78571,-7.14286 12.5,-17.85714 z"
       id="path4866"
       inkscape:connector-curvature="0" />
    <g
       id="g4932"
       transform="translate(-6.5446672e-6,4.2361028e-6)">
      <rect
         style="fill:#b69dab;fill-opacity:1;stroke:none;stroke-width:20;stroke-linecap:square;stroke-linejoin:round;stroke-miterlimit:4;stroke-dasharray:none;stroke-dashoffset:0;stroke-opacity:1"
         id="rect4203"
         width="1600"
         height="900"
         x="-210.85674"
         y="354.16125"
         inkscape:export-filename="/Users/tannewt/chickadee-website/twitch_banner.png"
         inkscape:export-xdpi="180"
         inkscape:export-ydpi="180" />
      <rect
         style="opacity:1;fill:#18151c;fill-opacity:1;stroke:none;stroke-width:3.543;stroke-linecap:round;stroke-linejoin:round;stroke-miterlimit:4;stroke-dasharray:none;stroke-dashoffset:0;stroke-opacity:1"
         id="rect4287"
         width="355.71432"
         height="355.71432"
         x="406.99884"
         y="690.7442"
         inkscape:export-filename="/Users/tannewt/profile_front.png"
         inkscape:export-xdpi="126.506"
         inkscape:export-ydpi="126.506" />
      <path
         sodipodi:nodetypes="cc"
         inkscape:connector-curvature="0"
         d="m 248.43393,189.22316 c -2.72816,-6.98951 -4.49811,-12.64818 -6.07524,-19.87109"
         style="fill:none;fill-opacity:1;fill-rule:evenodd;stroke:#330080;stroke-width:20;stroke-linecap:round;stroke-linejoin:round;stroke-miterlimit:4;stroke-dasharray:none;stroke-opacity:1"
         id="path4876" />
      <path
         style="fill:none;fill-rule:evenodd;stroke:#330080;stroke-width:20;stroke-linecap:butt;stroke-linejoin:miter;stroke-miterlimit:4;stroke-dasharray:none;stroke-opacity:1"
         d="m 242.12047,155.40394 -12.54784,11.18951 13.65563,5.51004 z"
         id="path4874"
         inkscape:connector-curvature="0" />
      <path
         id="path4872"
         style="fill:#ffd500;fill-opacity:1;fill-rule:evenodd;stroke:#330080;stroke-width:20;stroke-linecap:butt;stroke-linejoin:round;stroke-miterlimit:4;stroke-dasharray:none;stroke-dashoffset:0;stroke-opacity:1"
         d="m 282.76714,229.19624 c 13.09923,6.25238 28.59023,6.74146 43.63306,3.48421 18.01153,-4.12781 39.86562,-22.35056 61.43239,-29.96514 21.56677,-7.61457 41.3852,-13.33278 64.02602,-16.60076 46.11961,-6.6569 91.09992,-3.54561 92.62188,-6.85453 3.04392,-6.61784 -9.98611,-27.56758 -9.98611,-27.56758 0,0 -79.45029,18.19392 -116.00046,19.8853 -4.56876,0.21142 -12.51517,-0.71888 -17.98818,-1.98769 0,0 -12.4937,12.94619 -57.73322,21.12579 -45.23954,8.17959 -39.24554,-22.61915 -39.24554,-22.61915 0,0 -8.62375,17.40811 -25.58539,20.09144 -25.46204,4.02808 -29.50766,1.03503 -29.50766,1.03503 6.54792,14.64717 17.80217,31.79702 34.33321,39.97308 z"
         inkscape:connector-curvature="0"
         sodipodi:nodetypes="ccssscscscscc" />
      <path
         sodipodi:nodetypes="cssc"
         inkscape:connector-curvature="0"
         d="m 310.68432,128.82983 c 10.17488,3.97494 26.4903,11.95544 38.98754,18.22402 12.49722,6.26858 25.13398,12.61099 36.9308,17.28052 5.89841,2.33476 8.7297,3.44774 13.90308,5.25569"
         style="fill:#ffd500;fill-opacity:1;fill-rule:evenodd;stroke:#330080;stroke-width:20;stroke-linecap:butt;stroke-linejoin:miter;stroke-miterlimit:4;stroke-dasharray:none;stroke-opacity:1"
         id="path4870" />
      <path
         id="path4868"
         style="fill:none;fill-opacity:1;fill-rule:evenodd;stroke:#330080;stroke-width:20;stroke-linecap:butt;stroke-linejoin:miter;stroke-miterlimit:4;stroke-dasharray:none;stroke-opacity:1"
         d="m 285.07208,149.21963 c 17.09125,-8.32876 25.61224,-20.3898 25.61224,-20.3898 -10.06933,-4.35895 -18.46474,-5.54177 -26.48616,-4.52846 -32.08567,4.05322 -44.51388,26.48396 -42.75443,37.45486 0,0 26.53707,-4.20788 43.62835,-12.5366 z"
         inkscape:connector-curvature="0"
         sodipodi:nodetypes="scscs" />
      <path
         id="path4934"
         style="fill:none;fill-opacity:1;fill-rule:evenodd;stroke:#ffd500;stroke-width:8;stroke-linecap:round;stroke-linejoin:round;stroke-miterlimit:4;stroke-dasharray:none;stroke-opacity:1"
         d="m 248.43393,189.22316 c -2.72816,-6.98951 -4.49811,-12.64818 -6.07524,-19.87109"
         inkscape:connector-curvature="0"
         sodipodi:nodetypes="cc" />
      <path
         sodipodi:nodetypes="sccscsscscs"
         inkscape:connector-curvature="0"
         d="m 270.717,172.62178 c -13.78201,-0.32807 -29.10149,-6.7054 -29.10149,-6.7054 l -0.14861,-4.16443 c 0,0 26.5139,-4.2036 43.60518,-12.53232 17.09125,-8.32876 25.61224,-20.3898 25.61224,-20.3898 10.17488,3.97494 26.4903,11.95544 38.98754,18.22402 12.49722,6.26858 25.13398,12.61099 36.9308,17.28052 5.89841,2.33476 8.7297,3.44774 13.90308,5.25569 0,0 -12.4937,12.94618 -57.73322,21.12578 -45.23954,8.17959 -39.28816,-22.48457 -39.28816,-22.48457 0,0 -19.42181,4.7082 -32.76736,4.39051 z"
         style="fill:#ffd500;fill-opacity:1;fill-rule:evenodd;stroke:none;stroke-width:8;stroke-linecap:butt;stroke-linejoin:miter;stroke-miterlimit:4;stroke-dasharray:none;stroke-opacity:1"
         id="path4936" />
      <path
         sodipodi:nodetypes="ccssscscscscc"
         inkscape:connector-curvature="0"
         d="m 282.76714,229.19624 c 13.09923,6.25238 28.59023,6.74146 43.63306,3.48421 18.01153,-4.12781 39.86562,-22.35056 61.43239,-29.96514 21.56677,-7.61457 41.3852,-13.33278 64.02602,-16.60076 46.11961,-6.6569 91.09992,-3.54561 92.62188,-6.85453 3.04392,-6.61784 -9.98611,-27.56758 -9.98611,-27.56758 0,0 -79.45029,18.19392 -116.00046,19.8853 -4.56876,0.21142 -12.51517,-0.71888 -17.98818,-1.98769 0,0 -12.4937,12.94619 -57.73322,21.12579 -45.23954,8.17959 -39.24554,-22.61915 -39.24554,-22.61915 0,0 -8.62375,17.40811 -25.58539,20.09144 -25.46204,4.02808 -29.50766,1.03503 -29.50766,1.03503 6.54792,14.64717 17.80217,31.79702 34.33321,39.97308 z"
         style="fill:#ffd500;fill-opacity:1;fill-rule:evenodd;stroke:#ffd500;stroke-width:8;stroke-linecap:butt;stroke-linejoin:round;stroke-miterlimit:4;stroke-dasharray:none;stroke-dashoffset:0;stroke-opacity:1"
         id="path4938" />
      <path
         inkscape:connector-curvature="0"
         id="path4940"
         d="m 242.12047,155.40394 -12.54784,11.18951 13.65563,5.51004 z"
         style="fill:none;fill-rule:evenodd;stroke:#ffd500;stroke-width:8;stroke-linecap:butt;stroke-linejoin:miter;stroke-miterlimit:4;stroke-dasharray:none;stroke-opacity:1" />
      <path
         sodipodi:nodetypes="scscs"
         inkscape:connector-curvature="0"
         d="m 285.07208,149.21963 c 17.09125,-8.32876 25.61224,-20.3898 25.61224,-20.3898 -10.06933,-4.35895 -18.46474,-5.54177 -26.48616,-4.52846 -32.08567,4.05322 -44.51388,26.48396 -42.75443,37.45486 0,0 26.53707,-4.20788 43.62835,-12.5366 z"
         style="fill:#330080;fill-opacity:1;fill-rule:evenodd;stroke:#ffd500;stroke-width:8;stroke-linecap:butt;stroke-linejoin:miter;stroke-miterlimit:4;stroke-dasharray:none;stroke-opacity:1"
         id="path4942" />
      <path
         sodipodi:nodetypes="scccscs"
         inkscape:connector-curvature="0"
         d="m 277.94159,188.18813 c -25.46204,4.02808 -29.50766,1.03503 -29.50766,1.03503 -2.72816,-6.98951 -4.49811,-12.64818 -6.07524,-19.87109 -0.48746,-2.24797 -0.71439,-3.49332 -0.71439,-3.49332 0,0 15.29069,9.46542 29.0727,9.79349 13.34555,0.31769 31.86473,-7.46994 31.86473,-7.46994 0,0 -7.6785,17.3225 -24.64014,20.00583 z"
         style="fill:none;fill-opacity:1;fill-rule:evenodd;stroke:none;stroke-width:8;stroke-linecap:butt;stroke-linejoin:round;stroke-miterlimit:4;stroke-dasharray:none;stroke-opacity:1"
         id="path4944" />
      <path
         id="path4946"
         style="fill:#ffd500;fill-opacity:1;fill-rule:evenodd;stroke:#ffd500;stroke-width:8;stroke-linecap:butt;stroke-linejoin:miter;stroke-miterlimit:4;stroke-dasharray:none;stroke-opacity:1"
         d="m 310.68432,128.82983 c 10.17488,3.97494 26.4903,11.95544 38.98754,18.22402 12.49722,6.26858 25.13398,12.61099 36.9308,17.28052 5.89841,2.33476 8.7297,3.44774 13.90308,5.25569"
         inkscape:connector-curvature="0"
         sodipodi:nodetypes="cssc" />
      <path
         id="path4948"
         style="fill:none;fill-opacity:1;fill-rule:evenodd;stroke:#330080;stroke-width:8;stroke-linecap:butt;stroke-linejoin:miter;stroke-miterlimit:4;stroke-dasharray:none;stroke-dashoffset:0;stroke-opacity:1"
         d="m 399.07717,163.49324 c 0,0 -11.06513,19.043 -56.30465,27.2226 -45.23954,8.17959 -42.78108,-20.59885 -42.78108,-20.59885"
         inkscape:connector-curvature="0"
         sodipodi:nodetypes="csc" />
      <path
         style="fill:#330080;fill-opacity:1;fill-rule:evenodd;stroke:none;stroke-width:5;stroke-linecap:butt;stroke-linejoin:miter;stroke-miterlimit:4;stroke-dasharray:none;stroke-opacity:1"
         d="m 246.29904,154.51108 -12.72641,12.08237 14.72706,6.58147 z"
         id="path4950"
         inkscape:connector-curvature="0"
         sodipodi:nodetypes="cccc" />
      <text
         xml:space="preserve"
         style="font-style:normal;font-weight:600;font-size:180px;line-height:125%;font-family:'Open Sans';letter-spacing:0px;word-spacing:0px;fill:#05000c;fill-opacity:1;stroke:none;stroke-width:1px;stroke-linecap:butt;stroke-linejoin:miter;stroke-opacity:1;-inkscape-font-specification:'Open Sans Semi-Bold';font-stretch:normal;font-variant:normal;"
         x="572.15417"
         y="246.21341"
         id="text4878"
         sodipodi:linespacing="125%"><tspan
           sodipodi:role="line"
           id="tspan4880"
           x="572.15417"
           y="246.21341">Chickadee Tech</tspan></text>
      <text
         xml:space="preserve"
         style="font-style:italic;font-variant:normal;font-weight:bold;font-stretch:normal;font-size:180px;line-height:125%;font-family:Cuprum;-inkscape-font-specification:'Cuprum Bold Italic';letter-spacing:0px;word-spacing:0px;fill:#220055;fill-opacity:1;stroke:none;stroke-width:1px;stroke-linecap:butt;stroke-linejoin:miter;stroke-opacity:1"
         x="1988.3018"
         y="246.21339"
         id="text4171"
         sodipodi:linespacing="125%"><tspan
           sodipodi:role="line"
           id="tspan4173"
           x="1988.3018"
           y="246.21339">FlightStack</tspan></text>
      <g
         id="g4289"
         transform="matrix(2.1121447,0,0,2.1121447,-462.03563,-959.37657)">
        <path
           sodipodi:nodetypes="cc"
           inkscape:connector-curvature="0"
           d="m 446.28025,877.30013 c -2.72816,-6.98951 -4.49811,-12.64818 -6.07524,-19.87109"
           style="fill:none;fill-opacity:1;fill-rule:evenodd;stroke:#36313c;stroke-width:20;stroke-linecap:round;stroke-linejoin:round;stroke-miterlimit:4;stroke-dasharray:none;stroke-opacity:1"
           id="path4175" />
        <path
           style="fill:none;fill-rule:evenodd;stroke:#36313c;stroke-width:20;stroke-linecap:butt;stroke-linejoin:miter;stroke-miterlimit:4;stroke-dasharray:none;stroke-opacity:1"
           d="m 439.96679,843.48091 -12.54784,11.18951 13.65563,5.51004 z"
           id="path4177"
           inkscape:connector-curvature="0" />
        <path
           id="path4179"
           style="fill:#ffd500;fill-opacity:1;fill-rule:evenodd;stroke:#36313c;stroke-width:20;stroke-linecap:butt;stroke-linejoin:round;stroke-miterlimit:4;stroke-dasharray:none;stroke-dashoffset:0;stroke-opacity:1"
           d="m 480.61346,917.27321 c 13.09923,6.25238 28.59023,6.74146 43.63306,3.48421 18.01153,-4.12781 39.86562,-22.35056 61.43239,-29.96514 21.56677,-7.61457 41.3852,-13.33278 64.02602,-16.60076 46.11961,-6.6569 91.09992,-3.54561 92.62188,-6.85453 3.04392,-6.61784 -9.98611,-27.56758 -9.98611,-27.56758 0,0 -79.45029,18.19392 -116.00046,19.8853 -4.56876,0.21142 -12.51517,-0.71888 -17.98818,-1.98769 0,0 -12.4937,12.94619 -57.73322,21.12579 -45.23954,8.17959 -39.24554,-22.61915 -39.24554,-22.61915 0,0 -8.62375,17.40811 -25.58539,20.09144 -25.46204,4.02808 -29.50766,1.03503 -29.50766,1.03503 6.54792,14.64717 17.80217,31.79702 34.33321,39.97308 z"
           inkscape:connector-curvature="0"
           sodipodi:nodetypes="ccssscscscscc" />
        <path
           sodipodi:nodetypes="cssc"
           inkscape:connector-curvature="0"
           d="m 508.53064,816.9068 c 10.17488,3.97494 26.4903,11.95544 38.98754,18.22402 12.49722,6.26858 25.13398,12.61099 36.9308,17.28052 5.89841,2.33476 8.7297,3.44774 13.90308,5.25569"
           style="fill:#ffd500;fill-opacity:1;fill-rule:evenodd;stroke:#36313c;stroke-width:20;stroke-linecap:butt;stroke-linejoin:miter;stroke-miterlimit:4;stroke-dasharray:none;stroke-opacity:1"
           id="path4181" />
        <path
           id="path4183"
           style="fill:none;fill-opacity:1;fill-rule:evenodd;stroke:#36313c;stroke-width:20;stroke-linecap:butt;stroke-linejoin:miter;stroke-miterlimit:4;stroke-dasharray:none;stroke-opacity:1"
           d="m 482.9184,837.2966 c 17.09125,-8.32876 25.61224,-20.3898 25.61224,-20.3898 -10.06933,-4.35895 -18.46474,-5.54177 -26.48616,-4.52846 -32.08567,4.05322 -44.51388,26.48396 -42.75443,37.45486 0,0 26.53707,-4.20788 43.62835,-12.5366 z"
           inkscape:connector-curvature="0"
           sodipodi:nodetypes="scscs" />
        <path
           id="path4185"
           style="fill:none;fill-opacity:1;fill-rule:evenodd;stroke:#ffd500;stroke-width:8;stroke-linecap:round;stroke-linejoin:round;stroke-miterlimit:4;stroke-dasharray:none;stroke-opacity:1"
           d="m 446.28025,877.30013 c -2.72816,-6.98951 -4.49811,-12.64818 -6.07524,-19.87109"
           inkscape:connector-curvature="0"
           sodipodi:nodetypes="cc" />
        <path
           inkscape:transform-center-y="-11.616754"
           inkscape:transform-center-x="-4.5456864"
           style="display:inline;fill:#36313c;fill-opacity:1;fill-rule:evenodd;stroke:none;stroke-width:1px;stroke-linecap:butt;stroke-linejoin:miter;stroke-opacity:1"
           d="m 451.13801,849.86034 -8.57143,6.42857 9.64286,20 41.78571,-7.14286 12.5,-17.85714 z"
           id="path4173"
           inkscape:connector-curvature="0" />
        <path
           sodipodi:nodetypes="sccscsscscs"
           inkscape:connector-curvature="0"
           d="m 468.56332,860.69875 c -13.78201,-0.32807 -29.10149,-6.7054 -29.10149,-6.7054 l -0.14861,-4.16443 c 0,0 26.5139,-4.2036 43.60518,-12.53232 17.09125,-8.32876 25.61224,-20.3898 25.61224,-20.3898 10.17488,3.97494 26.4903,11.95544 38.98754,18.22402 12.49722,6.26858 25.13398,12.61099 36.9308,17.28052 5.89841,2.33476 8.7297,3.44774 13.90308,5.25569 0,0 -12.4937,12.94618 -57.73322,21.12578 -45.23954,8.17959 -39.28816,-22.48457 -39.28816,-22.48457 0,0 -19.42181,4.7082 -32.76736,4.39051 z"
           style="fill:#ffd500;fill-opacity:1;fill-rule:evenodd;stroke:none;stroke-width:8;stroke-linecap:butt;stroke-linejoin:miter;stroke-miterlimit:4;stroke-dasharray:none;stroke-opacity:1"
           id="path4187" />
        <path
           sodipodi:nodetypes="ccssscscscscc"
           inkscape:connector-curvature="0"
           d="m 480.61346,917.27321 c 13.09923,6.25238 28.59023,6.74146 43.63306,3.48421 18.01153,-4.12781 39.86562,-22.35056 61.43239,-29.96514 21.56677,-7.61457 41.3852,-13.33278 64.02602,-16.60076 46.11961,-6.6569 91.09992,-3.54561 92.62188,-6.85453 3.04392,-6.61784 -9.98611,-27.56758 -9.98611,-27.56758 0,0 -79.45029,18.19392 -116.00046,19.8853 -4.56876,0.21142 -12.51517,-0.71888 -17.98818,-1.98769 0,0 -12.4937,12.94619 -57.73322,21.12579 -45.23954,8.17959 -39.24554,-22.61915 -39.24554,-22.61915 0,0 -8.62375,17.40811 -25.58539,20.09144 -25.46204,4.02808 -29.50766,1.03503 -29.50766,1.03503 6.54792,14.64717 17.80217,31.79702 34.33321,39.97308 z"
           style="fill:#ffd500;fill-opacity:1;fill-rule:evenodd;stroke:#ffd500;stroke-width:8;stroke-linecap:butt;stroke-linejoin:round;stroke-miterlimit:4;stroke-dasharray:none;stroke-dashoffset:0;stroke-opacity:1"
           id="path4189" />
        <path
           inkscape:connector-curvature="0"
           id="path4191"
           d="m 439.96679,843.48091 -12.54784,11.18951 13.65563,5.51004 z"
           style="fill:none;fill-rule:evenodd;stroke:#ffd500;stroke-width:8;stroke-linecap:butt;stroke-linejoin:miter;stroke-miterlimit:4;stroke-dasharray:none;stroke-opacity:1" />
        <path
           sodipodi:nodetypes="scscs"
           inkscape:connector-curvature="0"
           d="m 482.9184,837.2966 c 17.09125,-8.32876 25.61224,-20.3898 25.61224,-20.3898 -10.06933,-4.35895 -18.46474,-5.54177 -26.48616,-4.52846 -32.08567,4.05322 -44.51388,26.48396 -42.75443,37.45486 0,0 26.53707,-4.20788 43.62835,-12.5366 z"
           style="fill:#36313c;fill-opacity:1;fill-rule:evenodd;stroke:#ffd500;stroke-width:8;stroke-linecap:butt;stroke-linejoin:miter;stroke-miterlimit:4;stroke-dasharray:none;stroke-opacity:1"
           id="path4193" />
        <path
           sodipodi:nodetypes="scccscs"
           inkscape:connector-curvature="0"
           d="m 475.78791,876.2651 c -25.46204,4.02808 -29.50766,1.03503 -29.50766,1.03503 -2.72816,-6.98951 -4.49811,-12.64818 -6.07524,-19.87109 -0.48746,-2.24797 -0.71439,-3.49332 -0.71439,-3.49332 0,0 15.29069,9.46542 29.0727,9.79349 13.34555,0.31769 31.86473,-7.46994 31.86473,-7.46994 0,0 -7.6785,17.3225 -24.64014,20.00583 z"
           style="fill:none;fill-opacity:1;fill-rule:evenodd;stroke:none;stroke-width:8;stroke-linecap:butt;stroke-linejoin:round;stroke-miterlimit:4;stroke-dasharray:none;stroke-opacity:1"
           id="path4195" />
        <path
           id="path4197"
           style="fill:#cea639;fill-opacity:1;fill-rule:evenodd;stroke:#ffd500;stroke-width:8;stroke-linecap:butt;stroke-linejoin:miter;stroke-miterlimit:4;stroke-dasharray:none;stroke-opacity:1"
           d="m 508.53064,816.9068 c 10.17488,3.97494 26.4903,11.95544 38.98754,18.22402 12.49722,6.26858 25.13398,12.61099 36.9308,17.28052 5.89841,2.33476 8.7297,3.44774 13.90308,5.25569"
           inkscape:connector-curvature="0"
           sodipodi:nodetypes="cssc" />
        <path
           id="path4199"
           style="fill:none;fill-opacity:1;fill-rule:evenodd;stroke:#36313c;stroke-width:8;stroke-linecap:butt;stroke-linejoin:miter;stroke-miterlimit:4;stroke-dasharray:none;stroke-dashoffset:0;stroke-opacity:1"
           d="m 596.92349,851.57021 c 0,0 -11.06513,19.043 -56.30465,27.2226 -45.23954,8.17959 -42.78108,-20.59885 -42.78108,-20.59885"
           inkscape:connector-curvature="0"
           sodipodi:nodetypes="csc" />
        <path
           style="fill:#36313c;fill-opacity:1;fill-rule:evenodd;stroke:none;stroke-width:5;stroke-linecap:butt;stroke-linejoin:miter;stroke-miterlimit:4;stroke-dasharray:none;stroke-opacity:1"
           d="m 444.14536,842.58805 -12.72641,12.08237 14.72706,6.58147 z"
           id="path4201"
           inkscape:connector-curvature="0"
           sodipodi:nodetypes="cccc" />
      </g>
      <path
         style="fill:#b27a53;fill-opacity:1;fill-rule:evenodd;stroke:#b27a53;stroke-width:10;stroke-linecap:butt;stroke-linejoin:miter;stroke-miterlimit:4;stroke-dasharray:none;stroke-opacity:1"
         d="m 1164.1418,916.45848 292.8571,101.42862 34.2857,-395.71432 -158.5714,-165.71428 -85.7143,-65.71429 45.7143,-25.71429 200,188.57143 17.1428,-171.42857 111.4286,-2.85714 5.7143,457.14284 325.7143,-157.14285 -325.7143,217.14285 -11.4286,485.71432 -202.8571,-8.5715 40,-288.5714 z"
         id="path4949"
         inkscape:connector-curvature="0" />
      <text
         xml:space="preserve"
         style="font-style:normal;font-variant:normal;font-weight:bold;font-stretch:normal;font-size:90px;line-height:125%;font-family:'Maven Pro';-inkscape-font-specification:'Maven Pro Bold';letter-spacing:0px;word-spacing:0px;fill:#ffffff;fill-opacity:1;stroke:none;stroke-width:1px;stroke-linecap:butt;stroke-linejoin:miter;stroke-opacity:1"
         x="-658.71539"
         y="1242.1729"
         id="text5563"
         sodipodi:linespacing="125%"><tspan
           sodipodi:role="line"
           id="tspan5565"
           x="-658.71539"
           y="1242.1729">polystack</tspan></text>
      <text
         xml:space="preserve"
         style="font-style:normal;font-variant:normal;font-weight:bold;font-stretch:normal;font-size:70px;line-height:125%;font-family:'Open Sans';-inkscape-font-specification:'Open Sans Bold';letter-spacing:0px;word-spacing:0px;fill:#ffffff;fill-opacity:1;stroke:none;stroke-width:1px;stroke-linecap:butt;stroke-linejoin:miter;stroke-opacity:1"
         x="-164.42966"
         y="1265.0299"
         id="text5739"
         sodipodi:linespacing="125%"><tspan
           sodipodi:role="line"
           id="tspan5741"
           x="-164.42966"
           y="1265.0299">chickadee.tech</tspan></text>
    </g>
  </g>
</svg>
