<?xml version="1.0" encoding="UTF-8" standalone="no"?>
<!-- Created with Inkscape (http://www.inkscape.org/) -->

<svg
   xmlns:dc="http://purl.org/dc/elements/1.1/"
   xmlns:cc="http://creativecommons.org/ns#"
   xmlns:rdf="http://www.w3.org/1999/02/22-rdf-syntax-ns#"
   xmlns:svg="http://www.w3.org/2000/svg"
   xmlns="http://www.w3.org/2000/svg"
   xmlns:sodipodi="http://sodipodi.sourceforge.net/DTD/sodipodi-0.dtd"
   xmlns:inkscape="http://www.inkscape.org/namespaces/inkscape"
   width="95.117493mm"
   height="35.474819mm"
   viewBox="0 0 337.03049 125.69818"
   id="svg2"
   version="1.1"
   inkscape:version="0.91 r13725"
   sodipodi:docname="chickadee-inverted.svg"
   inkscape:export-filename="/Users/tannewt/chickadee-projects/shared/kicad/libraries/private/footprints/chickadee.pretty/chickadee_inverted.png"
   inkscape:export-xdpi="599.8985"
   inkscape:export-ydpi="599.8985">
  <defs
     id="defs4" />
  <sodipodi:namedview
     id="base"
     pagecolor="#000000"
     bordercolor="#666666"
     borderopacity="1.0"
     inkscape:pageopacity="0"
     inkscape:pageshadow="2"
     inkscape:zoom="1.4"
     inkscape:cx="-49.459686"
     inkscape:cy="58.731524"
     inkscape:document-units="px"
     inkscape:current-layer="g4932"
     showgrid="false"
     inkscape:window-width="1600"
     inkscape:window-height="784"
     inkscape:window-x="1440"
     inkscape:window-y="1"
     inkscape:window-maximized="1"
     fit-margin-top="0"
     fit-margin-left="0"
     fit-margin-right="0"
     fit-margin-bottom="0" />
  <metadata
     id="metadata7">
    <rdf:RDF>
      <cc:Work
         rdf:about="">
        <dc:format>image/svg+xml</dc:format>
        <dc:type
           rdf:resource="http://purl.org/dc/dcmitype/StillImage" />
        <dc:title></dc:title>
      </cc:Work>
    </rdf:RDF>
  </metadata>
  <g
     inkscape:groupmode="layer"
     id="layer4"
     inkscape:label="outline"
     transform="translate(6.5344072,3.4941106)"
     style="display:none">
    <g
       transform="translate(-222.10473,-119.96872)"
       style="display:inline;stroke:#ffffff;stroke-opacity:1"
       id="g4921">
      <path
         id="path4235"
         style="fill:#ffffff;fill-opacity:1;fill-rule:evenodd;stroke:#ffffff;stroke-width:15;stroke-linecap:butt;stroke-linejoin:round;stroke-miterlimit:4;stroke-dasharray:none;stroke-dashoffset:0;stroke-opacity:1"
         d="m 282.76714,229.19624 c 13.09923,6.25238 28.59023,6.74146 43.63306,3.48421 18.01153,-4.12781 39.86562,-22.35056 61.43239,-29.96514 21.56677,-7.61457 41.3852,-13.33278 64.02602,-16.60076 46.11961,-6.6569 91.09992,-3.54561 92.62188,-6.85453 3.04392,-6.61784 -9.98611,-27.56758 -9.98611,-27.56758 0,0 -79.45029,18.19392 -116.00046,19.8853 -4.56876,0.21142 -12.51517,-0.71888 -17.98818,-1.98769 0,0 -12.4937,12.94619 -57.73322,21.12579 -45.23954,8.17959 -39.24554,-22.61915 -39.24554,-22.61915 0,0 -8.62375,17.40811 -25.58539,20.09144 -25.46204,4.02808 -29.50766,1.03503 -29.50766,1.03503 6.54792,14.64717 17.80217,31.79702 34.33321,39.97308 z"
         inkscape:connector-curvature="0"
         sodipodi:nodetypes="ccssscscscscc" />
      <path
         sodipodi:nodetypes="cc"
         inkscape:connector-curvature="0"
         d="m 248.43393,189.22316 c -2.72816,-6.98951 -4.49811,-12.64818 -6.07524,-19.87109"
         style="fill:none;fill-opacity:1;fill-rule:evenodd;stroke:#ffffff;stroke-width:15;stroke-linecap:round;stroke-linejoin:round;stroke-miterlimit:4;stroke-dasharray:none;stroke-opacity:1"
         id="path4251" />
      <path
         id="path4231"
         style="fill:#ffffff;fill-opacity:1;fill-rule:evenodd;stroke:#ffffff;stroke-width:8;stroke-linecap:butt;stroke-linejoin:miter;stroke-miterlimit:4;stroke-dasharray:none;stroke-opacity:1"
         d="m 270.717,172.62178 c -13.78201,-0.32807 -29.10149,-6.7054 -29.10149,-6.7054 l -0.14861,-4.16443 c 0,0 26.5139,-4.2036 43.60518,-12.53232 17.09125,-8.32876 25.61224,-20.3898 25.61224,-20.3898 10.17488,3.97494 26.4903,11.95544 38.98754,18.22402 12.49722,6.26858 25.13398,12.61099 36.9308,17.28052 5.89841,2.33476 8.7297,3.44774 13.90308,5.25569 0,0 -12.4937,12.94618 -57.73322,21.12578 -45.23954,8.17959 -39.28816,-22.48457 -39.28816,-22.48457 0,0 -19.42181,4.7082 -32.76736,4.39051 z"
         inkscape:connector-curvature="0"
         sodipodi:nodetypes="sccscsscscs" />
      <path
         style="fill:none;fill-rule:evenodd;stroke:#ffffff;stroke-width:15;stroke-linecap:butt;stroke-linejoin:miter;stroke-miterlimit:4;stroke-dasharray:none;stroke-opacity:1"
         d="m 242.12047,155.40394 -12.54784,11.18951 13.65563,5.51004 z"
         id="path4237"
         inkscape:connector-curvature="0" />
      <path
         id="path4239"
         style="fill:none;fill-opacity:1;fill-rule:evenodd;stroke:#ffffff;stroke-width:15;stroke-linecap:butt;stroke-linejoin:miter;stroke-miterlimit:4;stroke-dasharray:none;stroke-opacity:1"
         d="m 285.07208,149.21963 c 17.09125,-8.32876 25.61224,-20.3898 25.61224,-20.3898 -10.06933,-4.35895 -18.46474,-5.54177 -26.48616,-4.52846 -32.08567,4.05322 -44.51388,26.48396 -42.75443,37.45486 0,0 26.53707,-4.20788 43.62835,-12.5366 z"
         inkscape:connector-curvature="0"
         sodipodi:nodetypes="scscs" />
      <path
         id="path4233"
         style="fill:none;fill-opacity:1;fill-rule:evenodd;stroke:#ffffff;stroke-width:8;stroke-linecap:butt;stroke-linejoin:round;stroke-miterlimit:4;stroke-dasharray:none;stroke-opacity:1"
         d="m 277.94159,188.18813 c -25.46204,4.02808 -29.50766,1.03503 -29.50766,1.03503 -2.72816,-6.98951 -4.49811,-12.64818 -6.07524,-19.87109 -0.48746,-2.24797 -0.71439,-3.49332 -0.71439,-3.49332 0,0 15.29069,9.46542 29.0727,9.79349 13.34555,0.31769 31.86473,-7.46994 31.86473,-7.46994 0,0 -7.6785,17.3225 -24.64014,20.00583 z"
         inkscape:connector-curvature="0"
         sodipodi:nodetypes="scccscs" />
      <path
         sodipodi:nodetypes="cssc"
         inkscape:connector-curvature="0"
         d="m 310.68432,128.82983 c 10.17488,3.97494 26.4903,11.95544 38.98754,18.22402 12.49722,6.26858 25.13398,12.61099 36.9308,17.28052 5.89841,2.33476 8.7297,3.44774 13.90308,5.25569"
         style="fill:#ffffff;fill-opacity:1;fill-rule:evenodd;stroke:#ffffff;stroke-width:15;stroke-linecap:butt;stroke-linejoin:miter;stroke-miterlimit:4;stroke-dasharray:none;stroke-opacity:1"
         id="path4253" />
      <path
         sodipodi:nodetypes="csc"
         inkscape:connector-curvature="0"
         d="m 401.09748,160.46278 c 0,0 -13.08544,22.07346 -58.32496,30.25306 -45.23954,8.17959 -42.78108,-20.59885 -42.78108,-20.59885"
         style="fill:none;fill-opacity:1;fill-rule:evenodd;stroke:#000000;stroke-width:4;stroke-linecap:square;stroke-linejoin:miter;stroke-miterlimit:4;stroke-dasharray:none;stroke-dashoffset:0;stroke-opacity:1"
         id="path4241" />
      <path
         sodipodi:nodetypes="cccc"
         inkscape:connector-curvature="0"
         id="path4243"
         d="m 246.29904,154.51108 -12.72641,12.08237 14.72706,6.58147 z"
         style="fill:#000000;fill-opacity:1;fill-rule:evenodd;stroke:#ffffff;stroke-width:5;stroke-linecap:butt;stroke-linejoin:miter;stroke-miterlimit:4;stroke-dasharray:none;stroke-opacity:1" />
    </g>
    <path
       style="fill:#ffffff;fill-rule:evenodd;stroke:none;stroke-width:1px;stroke-linecap:butt;stroke-linejoin:miter;stroke-opacity:1"
       d="M 5.555839,46.978429 25.75889,60.615489 44.951788,70.211938 82.832509,44.958124 78.791898,3.0367936 27.779195,17.178929 Z"
       id="path4963"
       inkscape:connector-curvature="0"
       sodipodi:nodetypes="ccccccc" />
  </g>
  <g
     inkscape:label="Layer 1"
     inkscape:groupmode="layer"
     id="layer1"
     transform="translate(-215.57032,-116.47461)"
     style="display:inline">
    <g
       id="g4932"
       transform="translate(-6.5446672e-6,4.2361028e-6)">
      <path
         style="fill:#ffffff;fill-rule:evenodd;stroke:none;stroke-width:1px;stroke-linecap:butt;stroke-linejoin:miter;stroke-opacity:1;fill-opacity:1"
         d="m 241.07668,164.1385 c 0,0 17.93021,4.79823 29.54696,4.79823 11.61676,0 32.82996,-6.06092 32.82996,-6.06092 0,0 3.283,6.81853 -2.52538,11.61676 -5.80838,4.79822 -30.30458,19.95051 -40.65864,18.94036 -10.35406,-1.01015 -16.16244,-14.14214 -16.16244,-14.14214 z"
         id="path4155"
         inkscape:connector-curvature="0" />
      <path
         sodipodi:nodetypes="ccssscsccscc"
         inkscape:connector-curvature="0"
         d="m 282.76714,229.19624 c 13.09923,6.25238 28.59023,6.74146 43.63306,3.48421 18.01153,-4.12781 39.86562,-22.35056 61.43239,-29.96514 21.56677,-7.61457 41.3852,-13.33278 64.02602,-16.60076 46.11961,-6.6569 91.09992,-3.54561 92.62188,-6.85453 3.04392,-6.61784 -9.98611,-27.56758 -9.98611,-27.56758 0,0 -79.45029,18.19392 -116.00046,19.8853 -4.56876,0.21142 -12.51517,-0.71888 -17.98818,-1.98769 -19.80635,13.90464 -103.64672,44.96684 -96.97876,-1.49336 0,0 -8.62375,17.40811 -25.58539,20.09144 -25.46204,4.02808 -29.50766,1.03503 -29.50766,1.03503 6.54792,14.64717 17.80217,31.79702 34.33321,39.97308 z"
         style="fill:#000000;fill-opacity:1;fill-rule:evenodd;stroke:#000000;stroke-width:8;stroke-linecap:butt;stroke-linejoin:round;stroke-miterlimit:4;stroke-dasharray:none;stroke-dashoffset:0;stroke-opacity:1"
         id="path4938" />
      <path
         id="path4159"
         style="fill:none;fill-opacity:1;fill-rule:evenodd;stroke:#ffffff;stroke-width:8;stroke-linecap:butt;stroke-linejoin:round;stroke-miterlimit:4;stroke-dasharray:none;stroke-dashoffset:0;stroke-opacity:1"
         d="m 248.43393,189.22316 c 6.54792,14.64717 17.80217,31.79702 34.33321,39.97308 13.09923,6.25238 28.59023,6.74146 43.63306,3.48421 18.01153,-4.12781 39.86562,-22.35056 61.43239,-29.96514 21.56677,-7.61457 41.3852,-13.33278 64.02602,-16.60076 46.11961,-6.6569 91.09992,-3.54561 92.62188,-6.85453 3.04392,-6.61784 -9.98611,-27.56758 -9.98611,-27.56758 0,0 -79.45029,18.19392 -116.00046,19.8853 -4.56876,0.21142 -12.51517,-0.71888 -17.98818,-1.98769"
         inkscape:connector-curvature="0"
         sodipodi:nodetypes="cccssscsc" />
      <path
         id="path4934"
         style="fill:none;fill-opacity:1;fill-rule:evenodd;stroke:#ffffff;stroke-width:8;stroke-linecap:round;stroke-linejoin:round;stroke-miterlimit:4;stroke-dasharray:none;stroke-opacity:1"
         d="m 248.43393,189.22316 c -2.72816,-6.98951 -4.49811,-12.64818 -6.07524,-19.87109"
         inkscape:connector-curvature="0"
         sodipodi:nodetypes="cc" />
      <path
         sodipodi:nodetypes="sccscsscscs"
         inkscape:connector-curvature="0"
         d="m 270.717,172.62178 c -13.78201,-0.32807 -29.10149,-6.7054 -29.10149,-6.7054 l -0.14861,-4.16443 c 0,0 26.5139,-4.2036 43.60518,-12.53232 17.09125,-8.32876 25.61224,-20.3898 25.61224,-20.3898 10.17488,3.97494 26.4903,11.95544 38.98754,18.22402 12.49722,6.26858 25.13398,12.61099 36.9308,17.28052 5.89841,2.33476 8.7297,3.44774 13.90308,5.25569 0,0 -12.4937,12.94618 -57.73322,21.12578 -45.23954,8.17959 -39.28816,-22.48457 -39.28816,-22.48457 0,0 -19.42181,4.7082 -32.76736,4.39051 z"
         style="fill:#000000;fill-opacity:1;fill-rule:evenodd;stroke:none;stroke-width:8;stroke-linecap:butt;stroke-linejoin:miter;stroke-miterlimit:4;stroke-dasharray:none;stroke-opacity:1"
         id="path4936" />
      <path
         inkscape:connector-curvature="0"
         id="path4940"
         d="m 242.12047,155.40394 -12.54784,11.18951 13.65563,5.51004 z"
         style="fill:none;fill-rule:evenodd;stroke:#ffffff;stroke-width:8;stroke-linecap:butt;stroke-linejoin:miter;stroke-miterlimit:4;stroke-dasharray:none;stroke-opacity:1" />
      <path
         sodipodi:nodetypes="scscs"
         inkscape:connector-curvature="0"
         d="m 285.07208,149.21963 c 17.09125,-8.32876 25.61224,-20.3898 25.61224,-20.3898 -10.06933,-4.35895 -18.46474,-5.54177 -26.48616,-4.52846 -32.08567,4.05322 -44.51388,26.48396 -42.75443,37.45486 0,0 26.53707,-4.20788 43.62835,-12.5366 z"
         style="fill:#ffffff;fill-opacity:1;fill-rule:evenodd;stroke:#ffffff;stroke-width:8;stroke-linecap:butt;stroke-linejoin:miter;stroke-miterlimit:4;stroke-dasharray:none;stroke-opacity:1"
         id="path4942" />
      <path
         id="path4161"
         style="fill:none;fill-opacity:1;fill-rule:evenodd;stroke:#000000;stroke-width:8;stroke-linecap:butt;stroke-linejoin:miter;stroke-miterlimit:4;stroke-dasharray:none;stroke-opacity:1"
         d="m 241.44373,161.8825 c 0,0 26.53707,-4.20788 43.62835,-12.5366 17.09125,-8.32876 25.61224,-20.3898 25.61224,-20.3898"
         inkscape:connector-curvature="0"
         sodipodi:nodetypes="csc" />
      <path
         sodipodi:nodetypes="scccscs"
         inkscape:connector-curvature="0"
         d="m 277.94159,188.18813 c -25.46204,4.02808 -29.50766,1.03503 -29.50766,1.03503 -2.72816,-6.98951 -4.49811,-12.64818 -6.07524,-19.87109 -0.48746,-2.24797 -0.71439,-3.49332 -0.71439,-3.49332 0,0 15.29069,9.46542 29.0727,9.79349 13.34555,0.31769 31.86473,-7.46994 31.86473,-7.46994 0,0 -7.6785,17.3225 -24.64014,20.00583 z"
         style="fill:none;fill-opacity:1;fill-rule:evenodd;stroke:none;stroke-width:8;stroke-linecap:butt;stroke-linejoin:round;stroke-miterlimit:4;stroke-dasharray:none;stroke-opacity:1"
         id="path4944" />
      <path
         id="path4946"
         style="fill:#ffffff;fill-opacity:1;fill-rule:evenodd;stroke:#ffffff;stroke-width:8;stroke-linecap:round;stroke-linejoin:miter;stroke-miterlimit:4;stroke-dasharray:none;stroke-opacity:1"
         d="m 306.01236,126.9358 c 10.17488,3.97494 31.16226,13.84947 43.6595,20.11805 12.49722,6.26858 25.13398,12.61099 36.9308,17.28052 5.89841,2.33476 8.7297,3.44774 13.90308,5.25569"
         inkscape:connector-curvature="0"
         sodipodi:nodetypes="cssc" />
      <path
         id="path4948"
         style="fill:none;fill-opacity:1;fill-rule:evenodd;stroke:#ffffff;stroke-width:8;stroke-linecap:butt;stroke-linejoin:miter;stroke-miterlimit:4;stroke-dasharray:none;stroke-dashoffset:0;stroke-opacity:1"
         d="m 401.35001,167.53385 c 0,0 -13.33797,15.00239 -58.57749,23.18199 -45.23954,8.17959 -40.88704,-20.72512 -40.88704,-20.72512"
         inkscape:connector-curvature="0"
         sodipodi:nodetypes="csc" />
      <path
         style="fill:#ffffff;fill-opacity:1;fill-rule:evenodd;stroke:none;stroke-width:5;stroke-linecap:butt;stroke-linejoin:miter;stroke-miterlimit:4;stroke-dasharray:none;stroke-opacity:1"
         d="m 246.0465,150.97555 -12.47387,15.6179 14.72706,6.58147 z"
         id="path4950"
         inkscape:connector-curvature="0"
         sodipodi:nodetypes="cccc" />
    </g>
  </g>
</svg>
